<svg 
 xmlns="http://www.w3.org/2000/svg"
 xmlns:xlink="http://www.w3.org/1999/xlink"
 width="150px" height="83px">
<path fill-rule="evenodd"  fill="rgb(255, 255, 255)"
 d="M144.925,73.827 L80.076,81.774 C77.284,82.114 72.716,82.114 69.924,81.774 L5.074,73.827 C2.284,73.485 -0.002,70.905 -0.002,68.091 L-0.002,46.159 C-0.002,43.345 -0.002,38.744 -0.002,35.932 L-0.002,13.997 C-0.002,11.187 2.284,8.604 5.074,8.262 L69.924,0.317 C72.716,-0.026 77.284,-0.026 80.076,0.317 L144.925,8.262 C147.719,8.604 150.003,11.187 150.003,13.997 L150.003,35.932 C150.003,38.744 150.003,43.345 150.003,46.159 L150.003,68.091 C150.003,70.905 147.719,73.485 144.925,73.827 ZM145.349,13.997 C145.349,13.533 144.820,12.938 144.358,12.882 L79.510,4.936 C78.358,4.795 76.715,4.715 75.000,4.715 C73.285,4.715 71.641,4.795 70.490,4.936 L5.640,12.882 C5.189,12.937 4.652,13.542 4.652,13.997 L4.652,68.091 C4.652,68.557 5.178,69.152 5.640,69.208 L70.490,77.153 C71.641,77.295 73.285,77.376 75.000,77.376 C76.715,77.376 78.358,77.295 79.508,77.153 L144.361,69.208 C144.821,69.152 145.349,68.557 145.349,68.091 L145.349,13.997 ZM79.409,76.337 C78.290,76.476 76.682,76.554 75.000,76.554 C73.318,76.554 71.710,76.476 70.590,76.337 L5.761,68.397 C5.664,68.365 5.492,68.170 5.473,68.091 L5.471,14.027 C5.494,13.924 5.668,13.726 5.740,13.696 L70.590,5.751 C71.708,5.614 73.316,5.536 75.000,5.536 C76.684,5.536 78.293,5.614 79.409,5.751 L144.237,13.693 C144.334,13.724 144.508,13.921 144.528,13.997 L144.530,68.069 C144.509,68.170 144.334,68.365 144.260,68.393 L79.409,76.337 ZM114.698,61.162 L115.278,61.162 L118.098,57.305 L118.098,61.162 L118.700,61.162 L118.700,56.326 L118.084,56.326 L115.300,60.104 L115.300,56.326 L114.698,56.326 L114.698,61.162 ZM103.235,61.162 L103.663,60.089 L106.070,60.089 L106.498,61.162 L107.186,61.162 L105.236,56.326 L104.489,56.326 L102.546,61.162 L103.235,61.162 ZM97.326,62.054 L97.927,62.054 L97.927,61.162 L101.531,61.162 L101.531,62.054 L102.133,62.054 L102.133,60.626 L101.691,60.626 L101.691,56.326 L98.732,56.326 L98.435,58.755 C98.232,60.393 97.906,60.640 97.326,60.676 L97.326,62.054 ZM94.440,61.249 C95.868,61.249 96.840,60.176 96.840,58.748 C96.840,57.319 95.868,56.246 94.440,56.246 C93.004,56.246 92.040,57.319 92.040,58.748 C92.040,60.176 93.004,61.249 94.440,61.249 ZM82.527,61.162 L83.129,61.162 L83.129,56.862 L85.957,56.862 L85.957,61.162 L86.559,61.162 L86.559,56.326 L82.527,56.326 L82.527,61.162 ZM74.733,60.412 C74.947,60.686 75.232,60.896 75.590,61.044 C75.947,61.191 76.337,61.265 76.760,61.265 C77.208,61.265 77.600,61.183 77.935,61.021 C78.270,60.858 78.527,60.644 78.705,60.378 C78.883,60.112 78.973,59.830 78.973,59.530 C78.973,59.252 78.908,59.006 78.780,58.792 C78.651,58.579 78.451,58.415 78.179,58.302 C78.727,58.129 79.086,58.003 79.256,57.923 C79.463,57.819 79.630,57.682 79.755,57.511 C79.880,57.339 79.943,57.138 79.943,56.907 C79.943,56.706 79.897,56.532 79.804,56.385 C79.712,56.237 79.586,56.124 79.426,56.044 C79.265,55.965 79.085,55.926 78.884,55.926 C78.757,55.926 78.632,55.943 78.511,55.976 C78.389,56.009 78.288,56.063 78.208,56.139 C78.128,56.214 78.087,56.311 78.087,56.428 C78.087,56.545 78.125,56.634 78.201,56.696 C78.276,56.759 78.366,56.790 78.470,56.790 C78.581,56.790 78.676,56.756 78.757,56.688 C78.837,56.618 78.877,56.535 78.877,56.436 C78.877,56.370 78.859,56.306 78.824,56.243 C78.789,56.180 78.739,56.133 78.675,56.100 C78.696,56.057 78.768,56.036 78.891,56.036 C79.040,56.036 79.178,56.068 79.307,56.134 C79.436,56.199 79.539,56.286 79.617,56.399 C79.695,56.511 79.734,56.634 79.734,56.769 C79.734,56.901 79.687,57.023 79.594,57.135 C79.501,57.247 79.340,57.357 79.111,57.466 C78.952,57.539 78.777,57.607 78.583,57.668 C78.389,57.729 78.158,57.798 77.887,57.875 C77.617,57.951 77.435,58.006 77.341,58.036 C77.005,58.152 76.755,58.295 76.588,58.468 C76.422,58.640 76.339,58.849 76.339,59.095 C76.339,59.284 76.383,59.442 76.471,59.569 C76.560,59.696 76.673,59.791 76.811,59.852 C76.949,59.914 77.091,59.944 77.238,59.944 C77.372,59.944 77.506,59.921 77.640,59.872 C77.773,59.823 77.883,59.752 77.971,59.658 C78.058,59.563 78.102,59.451 78.102,59.321 C78.102,59.203 78.066,59.109 77.995,59.036 C77.925,58.964 77.831,58.928 77.716,58.928 C77.602,58.928 77.508,58.963 77.433,59.033 C77.357,59.102 77.319,59.194 77.319,59.307 C77.319,59.418 77.353,59.503 77.420,59.562 C77.487,59.621 77.567,59.659 77.659,59.675 C77.647,59.725 77.592,59.764 77.494,59.792 C77.396,59.821 77.306,59.834 77.224,59.834 C77.127,59.834 77.027,59.811 76.923,59.766 C76.819,59.720 76.732,59.653 76.662,59.564 C76.593,59.475 76.558,59.372 76.558,59.254 C76.558,59.110 76.614,58.988 76.724,58.889 C76.835,58.790 76.992,58.702 77.195,58.623 C77.323,58.574 77.601,58.482 78.031,58.347 C78.312,58.461 78.504,58.617 78.606,58.817 C78.709,59.016 78.760,59.210 78.760,59.399 C78.760,59.666 78.674,59.900 78.502,60.102 C78.329,60.304 78.098,60.459 77.808,60.566 C77.518,60.673 77.200,60.727 76.856,60.727 C76.490,60.727 76.159,60.665 75.864,60.541 C75.569,60.417 75.337,60.237 75.167,60.001 C74.997,59.765 74.912,59.485 74.912,59.162 C74.912,58.555 75.226,58.159 75.853,57.973 C75.868,57.977 75.902,57.992 75.956,58.017 C76.010,58.041 76.078,58.067 76.158,58.093 C76.238,58.119 76.314,58.132 76.385,58.132 C76.446,58.132 76.495,58.119 76.531,58.095 C76.568,58.070 76.586,58.036 76.586,57.994 C76.586,57.939 76.560,57.898 76.509,57.870 C76.456,57.842 76.386,57.827 76.296,57.827 C76.164,57.827 76.014,57.842 75.846,57.870 C75.601,57.643 75.478,57.368 75.478,57.045 C75.478,56.771 75.555,56.558 75.708,56.408 C75.862,56.257 76.065,56.181 76.317,56.181 C76.461,56.181 76.584,56.204 76.686,56.250 C76.787,56.296 76.848,56.351 76.870,56.415 C76.756,56.424 76.664,56.466 76.592,56.542 C76.520,56.618 76.484,56.708 76.484,56.811 C76.484,56.922 76.521,57.011 76.595,57.076 C76.670,57.143 76.759,57.176 76.863,57.176 C76.969,57.176 77.063,57.141 77.146,57.069 C77.228,56.998 77.270,56.906 77.270,56.790 C77.270,56.708 77.247,56.622 77.202,56.533 C77.158,56.444 77.090,56.364 77.001,56.291 C76.821,56.144 76.570,56.071 76.246,56.071 C75.987,56.071 75.765,56.114 75.581,56.197 C75.397,56.281 75.257,56.392 75.163,56.530 C75.069,56.668 75.022,56.817 75.022,56.978 C75.022,57.164 75.084,57.341 75.209,57.509 C75.334,57.677 75.515,57.811 75.751,57.912 C75.579,57.957 75.392,58.037 75.190,58.151 C74.988,58.266 74.808,58.433 74.650,58.652 C74.492,58.872 74.413,59.141 74.413,59.459 C74.413,59.821 74.519,60.138 74.733,60.412 ZM73.083,45.655 C73.517,46.187 74.179,46.208 74.876,46.148 C75.469,46.287 75.777,46.521 76.522,46.610 C76.345,46.302 76.180,45.970 76.022,45.613 C74.497,45.387 73.465,44.892 72.936,44.128 L73.077,45.661 C73.079,45.659 73.080,45.657 73.083,45.655 ZM72.227,46.215 C72.473,46.042 72.724,45.875 72.983,45.719 C72.673,45.633 72.428,45.516 72.227,45.378 L72.227,46.215 ZM68.585,61.162 L69.187,61.162 L69.187,56.862 L71.754,56.862 L71.754,56.326 L68.585,56.326 L68.585,61.162 ZM63.278,61.162 L63.880,61.162 L63.880,58.943 L66.708,58.943 L66.708,61.162 L67.310,61.162 L67.310,56.326 L66.708,56.326 L66.708,58.407 L63.880,58.407 L63.880,56.326 L63.278,56.326 L63.278,61.162 ZM58.000,61.162 L58.580,61.162 L61.400,57.305 L61.400,61.162 L62.002,61.162 L62.002,56.326 L61.386,56.326 L58.602,60.104 L58.602,56.326 L58.000,56.326 L58.000,61.162 ZM53.389,56.862 L54.919,56.862 L54.919,61.162 L55.520,61.162 L55.520,56.862 L57.058,56.862 L57.058,56.326 L53.389,56.326 L53.389,56.862 ZM49.452,61.162 L52.620,61.162 L52.620,60.626 L50.054,60.626 L50.054,58.958 L52.569,58.958 L52.569,58.421 L50.054,58.421 L50.054,56.862 L52.620,56.862 L52.620,56.326 L49.452,56.326 L49.452,61.162 ZM44.949,61.162 L45.551,61.162 L45.551,59.538 L46.037,58.987 L47.871,61.162 L48.618,61.162 L46.428,58.624 L48.444,56.326 L47.690,56.326 L45.551,58.827 L45.551,56.326 L44.949,56.326 L44.949,61.162 ZM40.548,61.162 L41.150,61.162 L41.150,59.241 L42.491,59.241 C43.449,59.241 44.007,58.574 44.007,57.784 C44.007,56.993 43.463,56.326 42.491,56.326 L40.548,56.326 L40.548,61.162 ZM35.821,61.162 L36.249,60.089 L38.656,60.089 L39.084,61.162 L39.772,61.162 L37.822,56.326 L37.075,56.326 L35.132,61.162 L35.821,61.162 ZM29.622,61.162 L30.224,61.162 L30.224,57.182 L31.862,61.162 L32.109,61.162 L33.755,57.182 L33.755,61.162 L34.357,61.162 L34.357,56.326 L33.494,56.326 L31.985,59.965 L30.485,56.326 L29.622,56.326 L29.622,61.162 ZM50.929,45.623 C50.171,45.588 49.620,45.495 49.276,45.344 C48.932,45.192 48.699,44.912 48.577,44.503 C48.454,44.096 48.393,43.443 48.393,42.545 L48.393,24.777 C48.393,23.867 48.454,23.211 48.577,22.808 C48.699,22.406 48.929,22.129 49.267,21.978 C49.605,21.827 50.159,21.733 50.929,21.698 L50.929,20.981 C49.460,21.051 47.344,21.086 44.580,21.086 L41.467,21.086 L35.591,36.196 L28.823,20.981 C26.759,21.051 24.287,21.086 21.407,21.086 C20.148,21.086 19.157,21.051 18.434,20.981 L18.434,21.698 C19.192,21.733 19.743,21.827 20.087,21.978 C20.431,22.129 20.667,22.409 20.795,22.817 C20.923,23.226 20.988,23.879 20.988,24.777 L20.988,40.044 C20.988,41.467 20.926,42.536 20.804,43.253 C20.682,43.970 20.442,44.503 20.087,44.854 C19.731,45.203 19.180,45.460 18.434,45.623 L18.434,46.340 C19.157,46.270 20.148,46.235 21.407,46.235 C23.133,46.235 24.474,46.270 25.430,46.340 L25.430,45.623 C24.275,45.460 23.454,45.195 22.964,44.827 C22.474,44.460 22.159,43.892 22.020,43.122 C21.879,42.353 21.810,41.088 21.810,39.327 L21.810,23.307 L31.901,46.305 L32.478,46.305 L41.118,24.199 L41.118,42.545 C41.118,43.443 41.045,44.096 40.899,44.503 C40.753,44.912 40.485,45.192 40.094,45.344 C39.704,45.495 39.077,45.588 38.214,45.623 L38.214,46.340 C39.578,46.270 41.700,46.235 44.580,46.235 C47.344,46.235 49.460,46.270 50.929,46.340 L50.929,45.623 ZM69.765,44.661 C69.520,44.837 69.319,44.967 69.162,45.055 C69.004,45.142 68.832,45.186 68.646,45.186 C68.447,45.186 68.307,45.072 68.226,44.845 C68.144,44.618 68.104,44.218 68.104,43.647 L68.104,34.063 C68.104,32.710 68.025,31.658 67.868,30.906 C67.710,30.154 67.398,29.533 66.932,29.043 C66.291,28.367 65.498,27.898 64.553,27.635 C63.609,27.373 62.455,27.242 61.091,27.242 C58.770,27.242 56.858,27.627 55.354,28.397 C54.678,28.758 54.139,29.215 53.736,29.769 C53.334,30.323 53.133,30.962 53.133,31.684 C53.133,32.267 53.255,32.798 53.500,33.276 C53.745,33.754 54.089,34.130 54.532,34.404 C54.975,34.678 55.488,34.815 56.071,34.815 C56.747,34.815 57.348,34.681 57.873,34.413 C58.397,34.144 58.802,33.783 59.088,33.328 C59.374,32.873 59.517,32.367 59.517,31.807 C59.517,30.245 58.718,29.166 57.121,28.571 C57.389,28.397 57.695,28.251 58.039,28.134 C58.383,28.018 58.706,27.959 59.009,27.959 C60.024,27.959 60.720,28.260 61.099,28.860 C61.478,29.460 61.668,30.139 61.668,30.897 L61.668,34.098 C61.668,34.599 61.461,35.033 61.047,35.401 C60.633,35.768 60.120,36.083 59.508,36.345 C58.896,36.608 57.954,36.966 56.683,37.421 C55.121,37.934 53.973,38.599 53.238,39.415 C52.503,40.231 52.136,41.251 52.136,42.475 C52.136,43.723 52.535,44.720 53.334,45.466 C54.133,46.212 55.237,46.585 56.648,46.585 C57.744,46.585 58.747,46.340 59.656,45.851 C60.566,45.361 61.271,44.702 61.773,43.874 C61.796,44.667 62.102,45.317 62.691,45.824 C63.279,46.332 64.204,46.585 65.463,46.585 C66.512,46.585 67.410,46.483 68.156,46.279 C68.902,46.075 69.555,45.740 70.115,45.273 L69.765,44.661 ZM78.663,27.400 C76.995,27.726 74.920,27.889 72.436,27.889 C71.702,27.889 70.961,27.854 70.215,27.785 L70.215,28.536 C70.950,28.536 71.469,28.784 71.772,29.280 C72.075,29.775 72.227,30.577 72.227,31.684 L72.227,42.204 C72.581,41.974 73.045,41.887 73.606,41.974 C73.606,41.974 73.859,41.578 74.535,41.565 C74.580,41.565 74.627,41.567 74.676,41.571 C75.084,41.594 75.620,41.750 76.046,41.894 C76.047,41.895 76.049,41.894 76.051,41.894 C76.515,41.876 77.089,41.801 77.192,41.629 C77.390,41.299 77.522,40.961 77.421,40.505 C77.320,40.048 76.953,39.856 76.910,40.234 C76.866,40.615 77.222,41.152 76.645,41.470 C76.148,41.744 75.426,41.127 74.711,41.040 C74.341,40.995 72.268,41.464 72.595,40.138 C73.059,38.253 76.168,37.068 73.882,36.118 C73.704,36.043 73.726,35.678 73.970,35.519 C75.484,33.328 75.448,29.654 78.663,28.298 L78.663,27.400 ZM78.663,36.750 C78.401,36.728 78.109,36.722 77.733,36.754 C77.471,36.501 77.555,36.173 77.662,35.837 C78.136,35.866 78.414,35.793 78.663,35.746 L78.663,35.100 C78.153,35.099 77.617,35.215 77.033,35.519 C76.665,35.709 76.273,35.709 75.710,35.773 C75.834,36.112 75.605,36.692 76.151,36.882 C76.819,37.085 76.654,38.536 78.156,38.378 C77.782,38.103 77.515,37.941 77.627,37.423 C77.950,37.292 78.316,37.265 78.663,37.275 L78.663,36.750 ZM78.663,44.351 C78.102,43.611 76.953,42.512 76.234,42.074 C75.861,42.163 75.648,42.511 76.040,42.886 C77.122,43.579 77.874,44.089 78.663,44.364 L78.663,44.351 ZM79.423,51.438 C78.916,51.012 78.663,50.246 78.663,49.138 L78.663,48.792 C77.903,48.419 77.250,47.772 76.692,46.881 C72.688,48.373 73.162,50.134 74.417,52.680 C74.661,52.677 74.908,52.671 75.147,52.671 C76.476,52.671 77.814,52.694 79.161,52.741 C80.508,52.788 81.367,52.817 81.741,52.829 L81.741,52.077 C80.703,52.077 79.931,51.864 79.423,51.438 ZM89.541,31.256 C89.261,30.553 88.923,29.948 88.533,29.431 C88.278,29.623 87.889,29.817 87.215,30.023 C87.254,29.430 87.111,29.379 87.762,28.628 C84.244,30.265 83.870,31.270 83.394,32.581 C83.551,33.649 83.632,35.026 83.643,36.690 L84.211,36.155 C84.707,37.992 84.244,38.842 83.567,39.468 C83.516,40.201 83.439,40.870 83.337,41.473 C83.991,41.238 84.705,40.664 84.705,40.664 C84.874,41.807 83.095,42.280 82.730,44.090 C82.685,44.022 82.654,43.959 82.630,43.902 C82.057,45.095 81.195,45.713 80.043,45.755 C80.167,46.174 80.361,46.470 80.570,46.744 C81.011,46.806 81.479,46.847 82.003,46.847 C84.498,46.847 86.512,46.025 88.045,44.381 C89.578,42.737 90.345,40.021 90.345,36.232 C90.345,34.261 90.077,32.603 89.541,31.256 ZM89.778,56.326 L87.835,56.326 L87.835,61.162 L88.437,61.162 L88.437,59.241 L89.778,59.241 C90.735,59.241 91.293,58.574 91.293,57.784 C91.293,56.993 90.750,56.326 89.778,56.326 ZM113.295,45.588 C112.828,45.518 112.478,45.346 112.245,45.072 C112.012,44.798 111.756,44.312 111.476,43.612 C111.254,43.064 110.998,42.344 110.706,41.452 C110.415,40.560 110.170,39.881 109.972,39.415 C109.773,38.948 109.511,38.523 109.185,38.138 C108.100,36.891 106.392,36.266 104.060,36.266 C103.547,36.266 102.982,36.302 102.364,36.371 C102.924,36.068 103.346,35.654 103.632,35.130 C103.917,34.605 104.183,33.865 104.428,32.908 C104.836,31.299 105.116,30.262 105.267,29.795 C105.418,29.329 105.684,28.924 106.063,28.580 C106.442,28.236 107.028,28.041 107.820,27.994 C107.121,28.367 106.599,28.831 106.255,29.384 C105.911,29.938 105.739,30.495 105.739,31.055 C105.739,31.743 105.920,32.305 106.282,32.743 C106.643,33.180 107.089,33.494 107.619,33.687 C108.150,33.879 108.683,33.976 109.220,33.976 C110.152,33.976 110.916,33.684 111.511,33.101 C112.105,32.518 112.403,31.714 112.403,30.687 C112.403,29.638 112.064,28.801 111.388,28.178 C110.712,27.554 109.692,27.242 108.328,27.242 C107.302,27.242 106.515,27.429 105.967,27.802 C105.418,28.175 105.007,28.691 104.734,29.350 C104.460,30.008 104.165,30.991 103.850,32.296 C103.582,33.381 103.320,34.194 103.063,34.736 C102.807,35.278 102.431,35.695 101.935,35.986 C101.440,36.279 100.726,36.453 99.793,36.511 L99.793,31.125 C99.793,30.449 99.857,29.924 99.985,29.551 C100.114,29.178 100.323,28.915 100.615,28.763 C100.906,28.613 101.303,28.536 101.804,28.536 L101.804,27.785 C99.239,27.877 97.566,27.924 96.785,27.924 C95.910,27.924 94.097,27.877 91.346,27.785 L91.346,28.536 C91.847,28.536 92.243,28.613 92.535,28.763 C92.826,28.915 93.036,29.178 93.165,29.551 C93.293,29.924 93.357,30.449 93.357,31.125 L93.357,43.018 C93.357,43.682 93.293,44.201 93.165,44.574 C93.036,44.947 92.826,45.210 92.535,45.361 C92.243,45.512 91.847,45.588 91.346,45.588 L91.346,46.340 C93.911,46.247 95.607,46.200 96.435,46.200 C97.263,46.200 99.052,46.247 101.804,46.340 L101.804,45.588 C101.303,45.588 100.906,45.512 100.615,45.361 C100.323,45.210 100.114,44.947 99.985,44.574 C99.857,44.201 99.793,43.682 99.793,43.018 L99.793,37.158 C99.921,37.147 100.108,37.141 100.353,37.141 C101.425,37.141 102.218,37.485 102.731,38.172 C103.058,38.581 103.367,39.152 103.658,39.887 C103.949,40.621 104.197,41.359 104.401,42.099 C104.605,42.840 104.742,43.432 104.812,43.874 C104.847,44.107 104.865,44.317 104.865,44.503 C104.865,45.227 104.550,45.588 103.920,45.588 L103.920,46.340 C106.672,46.247 108.427,46.200 109.185,46.200 C109.919,46.200 111.289,46.247 113.295,46.340 L113.295,45.588 ZM112.943,56.326 L110.993,58.603 L110.993,56.326 L110.391,56.326 L110.391,58.603 L108.448,56.326 L107.694,56.326 L109.709,58.624 L107.520,61.162 L108.267,61.162 L110.101,58.987 L110.391,59.320 L110.391,61.162 L110.993,61.162 L110.993,59.320 L111.283,58.987 L113.117,61.162 L113.871,61.162 L111.674,58.624 L113.697,56.326 L112.943,56.326 ZM121.371,30.749 C121.989,29.111 123.067,28.292 124.606,28.292 C125.177,28.292 125.655,28.431 126.040,28.711 C125.212,28.945 124.516,29.384 123.950,30.031 C123.385,30.679 123.102,31.433 123.102,32.296 C123.102,33.264 123.393,34.045 123.977,34.640 C124.559,35.234 125.364,35.532 126.390,35.532 C127.043,35.532 127.632,35.381 128.156,35.077 C128.681,34.774 129.092,34.357 129.389,33.827 C129.687,33.296 129.835,32.704 129.835,32.052 C129.835,31.247 129.643,30.522 129.258,29.874 C128.874,29.227 128.349,28.711 127.684,28.326 C127.160,28.011 126.486,27.752 125.664,27.548 C124.842,27.345 123.942,27.242 122.962,27.242 C121.167,27.242 119.578,27.592 118.196,28.292 C116.815,28.991 115.727,30.075 114.935,31.544 C114.142,33.013 113.745,34.856 113.745,37.071 C113.745,40.475 114.532,42.956 116.106,44.513 C117.680,46.069 119.773,46.847 122.385,46.847 C123.726,46.847 124.903,46.556 125.918,45.973 C126.932,45.390 127.763,44.638 128.410,43.717 C129.057,42.796 129.544,41.811 129.870,40.761 L129.258,40.534 C128.104,42.131 126.658,42.930 124.921,42.930 C123.673,42.930 122.615,42.443 121.747,41.470 C120.878,40.496 120.444,38.861 120.444,36.564 C120.444,34.325 120.753,32.387 121.371,30.749 ZM89.705,58.704 L88.437,58.704 L88.437,56.862 L89.705,56.862 C90.278,56.862 90.670,57.239 90.670,57.784 C90.670,58.327 90.278,58.704 89.705,58.704 ZM60.339,43.717 C59.126,43.717 58.520,42.872 58.520,41.181 C58.520,39.619 59.103,38.272 60.268,37.141 C61.026,36.383 61.493,35.859 61.668,35.567 L61.668,43.122 C61.283,43.519 60.840,43.717 60.339,43.717 ZM38.475,59.553 L36.423,59.553 L37.452,56.949 L38.475,59.553 ZM43.383,57.784 C43.383,58.327 42.992,58.704 42.419,58.704 L41.150,58.704 L41.150,56.862 L42.419,56.862 C42.992,56.862 43.383,57.239 43.383,57.784 ZM94.440,56.783 C95.520,56.783 96.216,57.616 96.216,58.748 C96.216,59.872 95.520,60.713 94.440,60.713 C93.352,60.713 92.664,59.872 92.664,58.748 C92.664,57.616 93.352,56.783 94.440,56.783 ZM99.269,56.862 L101.089,56.862 L101.089,60.626 L98.290,60.626 C98.645,60.357 98.906,59.821 99.030,58.798 L99.269,56.862 ZM105.889,59.553 L103.837,59.553 L104.866,56.949 L105.889,59.553 Z"/>
</svg>