<svg id="money-flow" xmlns="http://www.w3.org/2000/svg" xmlns:xlink="http://www.w3.org/1999/xlink" width="179" height="121" viewBox="0 0 179 121"><defs><path id="dwlga" d="M919.65 1334.76a40.95 40.95 0 0 1-14.97 18.4 41.25 41.25 0 0 1-12.98 5.81v8.47l-18.95-13.28 18.95-13.3v7.85a31.28 31.28 0 0 0 18.83-17.7c1.57-3.82 2.37-37.81 2.37-41.89h9.85c0 5.38-1.05 40.63-3.1 45.64zm32.6-45.63h9.85c0 4.07.8 38.06 2.37 41.88a31.12 31.12 0 0 0 18.83 17.7v-7.84l18.95 13.29-18.95 13.28v-8.47a41.25 41.25 0 0 1-12.98-5.82 40.95 40.95 0 0 1-14.97-18.4c-2.05-5-3.1-40.25-3.1-45.62zm-19.5 9.94h9.4l.02 71.9h7.99l-12.7 18.1-12.69-18.1h8zm6.79 108.82h-2.95v1.8h-2.78v-1.8h-1.89v-2.26h1.89v-.7h-1.89v-2.26h1.89v-6.49h5.25c1.01 0 1.9.18 2.67.55a4.16 4.16 0 0 1 2.42 3.88c0 1.33-.45 2.39-1.36 3.16a5.64 5.64 0 0 1-3.78 1.16h-2.42v.7h2.95zm-2.95-5.22h2.4c1.56 0 2.34-.68 2.34-2.05 0-.65-.2-1.17-.6-1.57-.39-.4-.94-.6-1.64-.6h-2.5zm88.15-46.77h-3.1c.03.91.27 1.6.72 2.05.46.46 1.16.69 2.12.69.65 0 1.24-.1 1.77-.3l.33 2.25c-.77.18-1.56.27-2.37.27a5.48 5.48 0 0 1-3.87-1.3 4.94 4.94 0 0 1-1.5-3.66h-1.57v-1.4h1.57v-1.16h-1.57v-1.41h1.6c.1-1.56.64-2.77 1.62-3.63a5.69 5.69 0 0 1 3.9-1.3c.65 0 1.38.1 2.19.3l-.33 2.25a5.3 5.3 0 0 0-1.72-.3c-1.75 0-2.7.9-2.88 2.68h3.1v1.41h-3.11v1.15h3.1zm-169.96 1.23c0-.5-.14-.9-.42-1.2-.29-.3-.76-.58-1.44-.84-.67-.25-1.25-.5-1.74-.75s-.9-.54-1.26-.87a3.47 3.47 0 0 1-1.1-2.7c0-1.05.33-1.91 1-2.58a4.23 4.23 0 0 1 2.66-1.17v-1.98h1.48v2.01c1.1.15 1.95.61 2.57 1.37.62.76.93 1.74.93 2.94h-2.68c0-.74-.15-1.3-.46-1.66-.3-.37-.72-.55-1.23-.55-.5 0-.9.14-1.18.43-.28.29-.42.68-.42 1.19 0 .47.14.85.41 1.13.27.29.78.58 1.52.87.74.3 1.35.58 1.82.84.48.27.88.56 1.2.9a3.45 3.45 0 0 1 1.02 2.6c0 1.06-.33 1.91-.98 2.57a4.31 4.31 0 0 1-2.71 1.16v1.84h-1.48v-1.84a4.46 4.46 0 0 1-2.94-1.34 4.35 4.35 0 0 1-1.05-3.05h2.68c0 .73.18 1.3.53 1.7.35.38.85.58 1.5.58.55 0 .98-.14 1.3-.43.31-.29.47-.68.47-1.17z"/></defs><g><g transform="translate(-848 -1289)"><use fill="#e7ae32" xlink:href="#dwlga"/></g></g></svg>