<svg xmlns="http://www.w3.org/2000/svg" xmlns:xlink="http://www.w3.org/1999/xlink" width="433" height="333" viewBox="0 0 433 333"><defs><path id="11txa" d="M1098.71 1235.46a1266.98 1266.98 0 0 0-311.9-1c-.05-.33-.12-.66-.18-.98a1267 1267 0 0 1 312.28 1l-.2.98zm20.15-104a1266.77 1266.77 0 0 0-351.9-.98l-.18-.97c116.9-16 235.47-15.83 352.27.98l-.2.97zm20.03-104.28c-129.76-20.77-261.96-20.8-391.86-.9l-.18-.98c130.02-19.92 262.35-19.9 392.22.91l-.18.97zm19.92-104.14c-142.78-25.25-288.84-25.23-431.8-1.04-.05-.33-.12-.65-.18-.97 143.08-24.23 289.26-24.25 432.17 1.04l-.19.97z"/></defs><g><g opacity=".3" transform="translate(-726 -903)"><use fill="#fff" xlink:href="#11txa"/></g></g></svg>