<svg xmlns="http://www.w3.org/2000/svg" xmlns:xlink="http://www.w3.org/1999/xlink" width="130" height="39" viewBox="0 0 130 39"><defs><path id="i6pta" d="M266.57 2403.3a130.9 130.9 0 0 0-47.6-9.02 129.85 129.85 0 0 0-47.63 9.02l-8.03-19.79c8.95-3.5 18.08-6.15 27.4-7.93a150.28 150.28 0 0 1 56.48 0c9.31 1.78 18.44 4.43 27.4 7.93zm-91.17 3.2c-4 1.47-7.94 3.16-11.82 5.05.11-2.03.25-4.05.42-6.07.17-2.02.39-4.04.64-6.07l.02-.2-.15-.09a182.91 182.91 0 0 0-10.56-6.62c1.73-.86 3.46-1.67 5.2-2.44 1.74-.77 3.5-1.51 5.3-2.23l.45 1.13a129.45 129.45 0 0 0-7.4 3.18l-.47.2.46.3a210.82 210.82 0 0 1 8.83 5.88c-.24 1.73-.46 3.45-.65 5.18-.2 1.73-.36 3.46-.48 5.19l-.04.5.43-.2a131.96 131.96 0 0 1 16.58-6.32 79.95 79.95 0 0 1 5.41-.2 126.66 126.66 0 0 0-12.17 3.82zm-8.6-8.36a191.79 191.79 0 0 0-8.56-5.72 175.64 175.64 0 0 1 6.87-2.93l5.9 14.57.23-.1a98 98 0 0 1 4.24-.54c1.41-.15 2.82-.29 4.24-.4a131.34 131.34 0 0 0-13.93 5.43 163.24 163.24 0 0 1 1.14-10.05v-.15zm104.82 5.3c.19 1.66.35 3.33.5 5.01a135.2 135.2 0 0 0-13.9-5.43c1.4.11 2.8.25 4.21.4 1.4.15 2.82.33 4.23.55l.23.1 5.9-14.58a252.62 252.62 0 0 1 6.87 2.93 178.1 178.1 0 0 0-8.55 5.72l-.13.11v.15c.24 1.7.45 3.37.64 5.04zm6.98-7.71c-1.75 1.1-3.49 2.23-5.2 3.4l-.15.09.02.19a167.88 167.88 0 0 1 1.05 12.14 129.45 129.45 0 0 0-23.99-8.89 120.28 120.28 0 0 1 5.41.2 127 127 0 0 1 16.58 6.33l.45.2-.03-.5c-.16-1.73-.32-3.46-.5-5.19-.19-1.73-.4-3.45-.66-5.18a196.16 196.16 0 0 1 8.84-5.89l.45-.28-.47-.21c-2.45-1.13-4.9-2.2-7.38-3.18l.43-1.13c1.8.71 3.56 1.46 5.3 2.23 1.74.77 3.48 1.58 5.2 2.44-1.81 1.05-3.6 2.12-5.35 3.23zm-6.26-11.63a151.02 151.02 0 0 0-53.15-9.7 150.19 150.19 0 0 0-53.17 9.7l-.28.1 6.79 17.61.28-.11c7.5-2.8 15.12-4.91 22.89-6.32a130.95 130.95 0 0 1 46.96 0c7.77 1.41 15.4 3.52 22.89 6.32l.28.11 6.8-17.62zm-6.85 16.95a134.8 134.8 0 0 0-22.86-6.27 131.13 131.13 0 0 0-46.9 0c-7.76 1.4-15.38 3.5-22.86 6.27l-6.36-16.52a151.87 151.87 0 0 1 25.97-7.15 149.3 149.3 0 0 1 53.39 0c8.82 1.6 17.48 3.99 25.98 7.15z"/></defs><g><g transform="translate(-154 -2373)"><use fill="#e73d34" xlink:href="#i6pta"/></g></g></svg>